<svg xmlns="http://www.w3.org/2000/svg" version="1.1" xmlns:xlink="http://www.w3.org/1999/xlink" width="512" height="512" x="0" y="0" viewBox="0 0 384.4 384.4" style="enable-background:new 0 0 512 512" xml:space="preserve" class=""><g><path d="M377.2 271.8c0 27.2-22.4 49.6-49.6 49.6H56.4c-27.2 0-49.6-22.4-49.6-49.6V112.6C6.8 85.4 29.2 63 56.4 63H328c27.2 0 49.6 22.4 49.6 49.6v159.2h-.4z" style="" fill="#ffd66e" data-original="#ffd66e" class=""></path><path d="M327.6 56.2H56.4C25.2 56.2 0 81.8 0 112.6v158.8c0 31.2 25.2 56.8 56.4 56.8H328c31.2 0 56.4-25.2 56.4-56.4V112.6c-.4-30.8-25.6-56.4-56.8-56.4zm-104 86.8c.4 1.2.4 2 .8 2.4 0 0 0 .4.4.4.4.8.8 1.2 1.6 1.6 14 10.8 22.4 27.2 22.4 44.8s-8 34-22.4 44.8l-.4.4-1.2 1.2c0 .4-.4.4-.4.8-.4.4-.4.8-.8 1.6v74h-62.8v-74c0-.8-.4-1.2-.4-1.6 0 0 0-.4-.4-.4-.4-.8-.8-1.2-1.6-1.6-14-10.8-22.4-27.2-22.4-44.8s8-34 22.4-44.8l1.6-1.6s0-.4.4-.4c.4-.4.4-1.2.4-1.6V69.8h62.8v72.4c-.4 0 0 .4 0 .8zm147.2 77.6H255.6c4-8.8 6-18.4 6-28.4 0-9.6-2-18.8-5.6-27.2h114.4v55.6h.4zM13.2 165H128c-3.6 8.4-5.6 17.6-5.6 27.2 0 10 2 19.6 6 28.4H13.2V165zm43.2-95.2h90.8V139c-4.4 4-8.4 8-12 12.8h-122V113c0-24 19.2-43.2 43.2-43.2zm-43.2 202v-37.6H136c3.2 4 6.8 8 10.8 11.6V315H56.4c-24-.4-43.2-19.6-43.2-43.2zm314.4 42.8h-90.8v-69.2c4-3.6 7.6-7.2 10.8-11.6h122.8v37.6c.4 24-18.8 43.2-42.8 43.2zm43.2-162.8h-122c-3.2-4.8-7.2-8.8-12-12.8V69.8h90.8c23.6 0 42.8 19.2 42.8 42.8v39.2h.4z" style="" fill="#000000" data-original="#005f75" class="" opacity="1"></path></g></svg>