<svg xmlns="http://www.w3.org/2000/svg" version="1.1" xmlns:xlink="http://www.w3.org/1999/xlink" width="512" height="512" x="0" y="0" viewBox="0 0 512 512" style="enable-background:new 0 0 512 512" xml:space="preserve" class=""><g><path fill="#ffbc2b" d="M170.494 7.5v270c74.558 0 135-60.441 135-135s-60.442-135-135-135z" opacity="1" data-original="#ffbc2b" class=""></path><path fill="#ffcf66" d="M275.494 142.5c0-74.559-47.01-135-105-135-74.558 0-135 60.441-135 135s60.442 135 135 135c57.99 0 105-60.441 105-135z" opacity="1" data-original="#ffcf66" class=""></path><path fill="#bdf2ff" d="M7.5 316c0 49.706 40.294 90 90 90h317c49.706 0 90-40.294 90-90z" opacity="1" data-original="#bdf2ff"></path><path fill="#e5faff" d="M97.5 376h317c49.706 0 90-26.863 90-60 0-39.513-25.465-73.077-60.878-85.181C438.785 202.534 414.165 181 384.5 181c-2.478 0-4.916.168-7.315.46C355.182 136.762 309.187 106 256 106s-99.182 30.762-121.185 75.46a60.472 60.472 0 0 0-7.315-.46c-29.665 0-54.285 21.534-59.122 49.819C32.965 242.923 7.5 276.487 7.5 316c0 33.137 40.294 60 90 60z" opacity="1" data-original="#e5faff" class=""></path><path fill="#28a6fa" d="M414.947 306.523c.003 0-22.362-34.438-37.763-58.153L377.183 376c24.853 0 45-20.147 45-45 0-9.027-2.66-17.432-7.236-24.477z" opacity="1" data-original="#28a6fa" class=""></path><path fill="#24c0ff" d="M392.183 331c0-9.027-.887-17.432-2.412-24.477l-12.587-58.152-37.768 58.152A44.807 44.807 0 0 0 332.183 331c0 24.853 20.147 45 45 45 8.284 0 15-20.147 15-45zM146.683 406c0 16.569 13.431 30 30 30s30-13.431 30-30a29.854 29.854 0 0 0-4.824-16.318c.002 0-14.908-22.959-25.175-38.769l-25.179 38.769A29.87 29.87 0 0 0 146.683 406z" opacity="1" data-original="#24c0ff" class=""></path><path fill="#28a6fa" d="M340.535 411.864c.004 0-29.816-45.918-50.35-77.538l-.002 170.174c33.137 0 60-26.863 60-60 0-12.036-3.546-23.242-9.648-32.636z" opacity="1" data-original="#28a6fa" class=""></path><path fill="#24c0ff" d="M320.183 444.5c0-12.036-1.773-23.242-4.824-32.636.002 0-14.908-45.917-25.175-77.537l-50.357 77.537c-6.097 9.394-9.644 20.6-9.644 32.636 0 33.137 26.863 60 60 60 16.569 0 30-26.863 30-60z" opacity="1" data-original="#24c0ff" class=""></path><path d="M421.205 302.458a29.002 29.002 0 0 0-.957-1.546l-36.773-56.628a7.499 7.499 0 0 0-12.58 0l-37.77 58.155a52.332 52.332 0 0 0-8.442 28.56c0 28.949 23.551 52.5 52.5 52.5s52.5-23.551 52.5-52.5c0-10.178-2.92-20.054-8.478-28.541zM377.183 368.5c-20.678 0-37.5-16.822-37.5-37.5 0-7.27 2.083-14.322 6.023-20.392l31.479-48.468c12.172 18.743 31.042 47.8 31.453 48.438A37.372 37.372 0 0 1 414.683 331c0 20.678-16.822 37.5-37.5 37.5z" fill="#000000" opacity="1" data-original="#000000" class=""></path><path d="M450.129 225.219C442.93 194.996 416.001 173.5 384.5 173.5c-.967 0-1.949.023-2.944.069a142.93 142.93 0 0 0-49.248-52.931 141.863 141.863 0 0 0-23.371-11.955c-7.281-29.848-24.291-56.885-48.224-76.485C235.362 11.435 203.321 0 170.494 0c-78.575 0-142.5 63.925-142.5 142.5 0 30.785 9.968 60.644 28.242 85.153C22.22 243.527 0 277.818 0 316c0 53.762 43.738 97.5 97.5 97.5h42.438c3.484 17.096 18.635 30 36.745 30s33.261-12.904 36.745-30h16.791a67.306 67.306 0 0 0-7.537 31c0 37.22 30.28 67.5 67.5 67.5s67.5-30.28 67.5-67.5a67.287 67.287 0 0 0-7.539-31H414.5c53.762 0 97.5-43.738 97.5-97.5 0-40.255-24.688-76.201-61.871-90.781zM176.683 428.5c-12.407 0-22.5-10.093-22.5-22.5a22.42 22.42 0 0 1 3.612-12.233l18.889-29.084c8.998 13.855 18.554 28.571 18.867 29.055A22.43 22.43 0 0 1 199.183 406c0 12.407-10.093 22.5-22.5 22.5zm113.5 68.5c-28.949 0-52.5-23.551-52.5-52.5 0-10.178 2.917-20.051 8.434-28.551l44.068-67.853c22.477 34.611 43.528 67.028 44.038 67.818a52.328 52.328 0 0 1 8.46 28.586c0 28.949-23.551 52.5-52.5 52.5zM414.5 398.5h-73.699l-44.326-68.259a7.499 7.499 0 0 0-12.58 0L239.563 398.5h-26.149a37.307 37.307 0 0 0-5.265-12.903l-.073.047c-.622-1.118-1.438-2.375-2.417-3.882l-22.686-34.935a7.499 7.499 0 0 0-12.58 0l-25.181 38.771a37.318 37.318 0 0 0-5.262 12.901H97.5C52.009 398.5 15 361.491 15 316c0-35.296 22.426-66.675 55.804-78.084a7.498 7.498 0 0 0 4.967-5.833C80.089 206.83 101.844 188.5 127.5 188.5c2.072 0 4.169.132 6.411.405a7.493 7.493 0 0 0 7.633-4.133 127.883 127.883 0 0 1 15.956-24.698 7.5 7.5 0 0 0-11.585-9.529 143.286 143.286 0 0 0-15.47 23.024 63.89 63.89 0 0 0-2.946-.069c-27.676 0-51.817 16.595-62.155 41.121A127.5 127.5 0 0 1 42.993 142.5c0-70.304 57.196-127.5 127.5-127.5 55.361 0 104.403 36.323 121.26 88.047a142.783 142.783 0 0 0-35.755-4.547c-32.922 0-65.046 11.513-90.455 32.417a7.5 7.5 0 0 0-1.026 10.557 7.5 7.5 0 0 0 10.557 1.026c22.73-18.701 51.47-29 80.924-29 48.958 0 92.815 27.31 114.456 71.272a7.508 7.508 0 0 0 7.635 4.133 52.511 52.511 0 0 1 6.41-.405c25.656 0 47.411 18.33 51.729 43.583a7.501 7.501 0 0 0 4.967 5.833C474.574 249.325 497 280.704 497 316c0 45.491-37.009 82.5-82.5 82.5z" fill="#000000" opacity="1" data-original="#000000" class=""></path></g></svg>