<svg xmlns="http://www.w3.org/2000/svg" version="1.1" xmlns:xlink="http://www.w3.org/1999/xlink" width="512" height="512" x="0" y="0" viewBox="0 0 512 512" style="enable-background:new 0 0 512 512" xml:space="preserve" class=""><g><linearGradient id="a" x1="77.102" x2="434.898" y1="434.895" y2="77.099" gradientUnits="userSpaceOnUse"><stop stop-opacity="1" stop-color="#ffffff" offset="0"></stop><stop stop-opacity="1" stop-color="#ffffff" offset="1"></stop></linearGradient><path fill="url(#a)" fill-rule="evenodd" d="M433.575 131.672c12.776 0 23.17-10.377 23.17-23.153s-10.394-23.153-23.17-23.153H78.42c-12.77 0-23.164 10.377-23.164 23.153s10.394 23.153 23.164 23.153zm0 248.6H78.42c-12.77 0-23.164 10.377-23.164 23.153 0 12.832 10.394 23.209 23.164 23.209h355.155c12.776 0 23.17-10.377 23.17-23.209-.001-12.775-10.395-23.153-23.17-23.153zm0-147.453H78.42c-12.77 0-23.164 10.377-23.164 23.153s10.394 23.153 23.164 23.153h355.155c12.776 0 23.17-10.377 23.17-23.153-.001-12.776-10.395-23.153-23.17-23.153z" clip-rule="evenodd" opacity="1" data-original="url(#a)" class=""></path></g></svg>